<svg width="284" height="728" viewBox="0 0 284 728" class="keymap" xmlns="http://www.w3.org/2000/svg" xmlns:xlink="http://www.w3.org/1999/xlink">
<defs>/* start glyphs */
<svg id="mdi:arrow-right-top">
<svg xmlns="http://www.w3.org/2000/svg" id="mdi-arrow-right-top" viewBox="0 0 24 24"><path d="M20 8L14.5 13.5L13.09 12.09L16.17 9H10.5C8 9 6 11 6 13.5V20H4V13.5C4 9.91 6.91 7 10.5 7H16.17L13.08 3.91L14.5 2.5L20 8Z" /></svg>
</svg>
<svg id="mdi:calendar-text-outline">
<svg xmlns="http://www.w3.org/2000/svg" id="mdi-calendar-text-outline" viewBox="0 0 24 24"><path d="M19 3H18V1H16V3H8V1H6V3H5C3.9 3 3 3.9 3 5V19C3 20.11 3.9 21 5 21H19C20.11 21 21 20.11 21 19V5C21 3.9 20.11 3 19 3M19 19H5V9H19V19M5 7V5H19V7H5M7 11H17V13H7V11M7 15H14V17H7V15Z" /></svg>
</svg>
<svg id="mdi:cancel">
<svg xmlns="http://www.w3.org/2000/svg" id="mdi-cancel" viewBox="0 0 24 24"><path d="M12 2C17.5 2 22 6.5 22 12S17.5 22 12 22 2 17.5 2 12 6.5 2 12 2M12 4C10.1 4 8.4 4.6 7.1 5.7L18.3 16.9C19.3 15.5 20 13.8 20 12C20 7.6 16.4 4 12 4M16.9 18.3L5.7 7.1C4.6 8.4 4 10.1 4 12C4 16.4 7.6 20 12 20C13.9 20 15.6 19.4 16.9 18.3Z" /></svg>
</svg>
<svg id="mdi:close-box-outline">
<svg xmlns="http://www.w3.org/2000/svg" id="mdi-close-box-outline" viewBox="0 0 24 24"><path d="M19,3H5A2,2 0 0,0 3,5V19A2,2 0 0,0 5,21H19A2,2 0 0,0 21,19V5A2,2 0 0,0 19,3M19,19H5V5H19V19M17,8.4L13.4,12L17,15.6L15.6,17L12,13.4L8.4,17L7,15.6L10.6,12L7,8.4L8.4,7L12,10.6L15.6,7L17,8.4Z" /></svg>
</svg>
<svg id="mdi:content-cut">
<svg xmlns="http://www.w3.org/2000/svg" id="mdi-content-cut" viewBox="0 0 24 24"><path d="M19,3L13,9L15,11L22,4V3M12,12.5A0.5,0.5 0 0,1 11.5,12A0.5,0.5 0 0,1 12,11.5A0.5,0.5 0 0,1 12.5,12A0.5,0.5 0 0,1 12,12.5M6,20A2,2 0 0,1 4,18C4,16.89 4.9,16 6,16A2,2 0 0,1 8,18C8,19.11 7.1,20 6,20M6,8A2,2 0 0,1 4,6C4,4.89 4.9,4 6,4A2,2 0 0,1 8,6C8,7.11 7.1,8 6,8M9.64,7.64C9.87,7.14 10,6.59 10,6A4,4 0 0,0 6,2A4,4 0 0,0 2,6A4,4 0 0,0 6,10C6.59,10 7.14,9.87 7.64,9.64L10,12L7.64,14.36C7.14,14.13 6.59,14 6,14A4,4 0 0,0 2,18A4,4 0 0,0 6,22A4,4 0 0,0 10,18C10,17.41 9.87,16.86 9.64,16.36L12,14L19,21H22V20L9.64,7.64Z" /></svg>
</svg>
<svg id="mdi:content-save-outline">
<svg xmlns="http://www.w3.org/2000/svg" id="mdi-content-save-outline" viewBox="0 0 24 24"><path d="M17 3H5C3.89 3 3 3.9 3 5V19C3 20.1 3.89 21 5 21H19C20.1 21 21 20.1 21 19V7L17 3M19 19H5V5H16.17L19 7.83V19M12 12C10.34 12 9 13.34 9 15S10.34 18 12 18 15 16.66 15 15 13.66 12 12 12M6 6H15V10H6V6Z" /></svg>
</svg>
<svg id="mdi:file-undo-outline">
<svg xmlns="http://www.w3.org/2000/svg" id="mdi-file-undo-outline" viewBox="0 0 24 24"><path d="M14 2H6C4.89 2 4 2.9 4 4V20C4 21.11 4.89 22 6 22H18C19.11 22 20 21.11 20 20V8L14 2M18 20H6V4H13V9H18V20M17 17.61L15.84 18C15.33 16.44 13.86 15.31 12.13 15.31C11.17 15.31 10.31 15.66 9.63 16.23L11.4 18H7V13.6L8.76 15.36C9.66 14.57 10.83 14.09 12.13 14.09C14.4 14.09 16.33 15.57 17 17.61Z" /></svg>
</svg>
<svg id="mdi:google-chrome">
<svg xmlns="http://www.w3.org/2000/svg" id="mdi-google-chrome" viewBox="0 0 24 24"><path d="M12,20L15.46,14H15.45C15.79,13.4 16,12.73 16,12C16,10.8 15.46,9.73 14.62,9H19.41C19.79,9.93 20,10.94 20,12A8,8 0 0,1 12,20M4,12C4,10.54 4.39,9.18 5.07,8L8.54,14H8.55C9.24,15.19 10.5,16 12,16C12.45,16 12.88,15.91 13.29,15.77L10.89,19.91C7,19.37 4,16.04 4,12M15,12A3,3 0 0,1 12,15A3,3 0 0,1 9,12A3,3 0 0,1 12,9A3,3 0 0,1 15,12M12,4C14.96,4 17.54,5.61 18.92,8H12C10.06,8 8.45,9.38 8.08,11.21L5.7,7.08C7.16,5.21 9.44,4 12,4M12,2A10,10 0 0,0 2,12A10,10 0 0,0 12,22A10,10 0 0,0 22,12A10,10 0 0,0 12,2Z" /></svg>
</svg>
<svg id="mdi:message-badge">
<svg xmlns="http://www.w3.org/2000/svg" id="mdi-message-badge" viewBox="0 0 24 24"><path d="M22 7V16C22 17.1 21.1 18 20 18H6L2 22V4C2 2.9 2.9 2 4 2H14.1C14 2.3 14 2.7 14 3C14 5.8 16.2 8 19 8C20.1 8 21.2 7.6 22 7M16 3C16 4.7 17.3 6 19 6S22 4.7 22 3 20.7 0 19 0 16 1.3 16 3Z" /></svg>
</svg>
<svg id="mdi:microsoft-visual-studio-code">
<svg xmlns="http://www.w3.org/2000/svg" id="mdi-microsoft-visual-studio-code" viewBox="0 0 24 24"><path d="M17,16.47V7.39L11,11.93M2.22,9.19C1.92,8.87 1.91,8.37 2.2,8.04L3.4,6.93C3.6,6.75 4.09,6.67 4.45,6.93L7.87,9.54L15.8,2.29C16.12,1.97 16.67,1.84 17.3,2.17L21.3,4.08C21.66,4.29 22,4.62 22,5.23V18.73C22,19.13 21.71,19.56 21.4,19.73L17,21.83C16.68,21.96 16.08,21.84 15.87,21.63L7.85,14.33L4.45,16.93C4.07,17.19 3.6,17.12 3.4,16.93L2.2,15.83C1.88,15.5 1.92,14.96 2.25,14.63L5.25,11.93" /></svg>
</svg>
<svg id="mdi:note-text-outline">
<svg xmlns="http://www.w3.org/2000/svg" id="mdi-note-text-outline" viewBox="0 0 24 24"><path d="M15 3H5A2 2 0 0 0 3 5V19A2 2 0 0 0 5 21H19A2 2 0 0 0 21 19V9L15 3M19 19H5V5H14V10H19M17 14H7V12H17M14 17H7V15H14" /></svg>
</svg>
<svg id="mdi:open-in-new">
<svg xmlns="http://www.w3.org/2000/svg" id="mdi-open-in-new" viewBox="0 0 24 24"><path d="M14,3V5H17.59L7.76,14.83L9.17,16.24L19,6.41V10H21V3M19,19H5V5H12V3H5C3.89,3 3,3.9 3,5V19A2,2 0 0,0 5,21H19A2,2 0 0,0 21,19V12H19V19Z" /></svg>
</svg>
<svg id="mdi:power-cycle">
<svg xmlns="http://www.w3.org/2000/svg" id="mdi-power-cycle" viewBox="0 0 24 24"><path d="M12,3A9,9 0 0,0 3,12A9,9 0 0,0 12,21A9,9 0 0,0 21,12A9,9 0 0,0 12,3M12,19A7,7 0 0,1 5,12A7,7 0 0,1 12,5A7,7 0 0,1 19,12A7,7 0 0,1 12,19M13,17H11V7H13V17Z" /></svg>
</svg>
<svg id="mdi:slack">
<svg xmlns="http://www.w3.org/2000/svg" id="mdi-slack" viewBox="0 0 24 24"><path d="M6,15A2,2 0 0,1 4,17A2,2 0 0,1 2,15A2,2 0 0,1 4,13H6V15M7,15A2,2 0 0,1 9,13A2,2 0 0,1 11,15V20A2,2 0 0,1 9,22A2,2 0 0,1 7,20V15M9,7A2,2 0 0,1 7,5A2,2 0 0,1 9,3A2,2 0 0,1 11,5V7H9M9,8A2,2 0 0,1 11,10A2,2 0 0,1 9,12H4A2,2 0 0,1 2,10A2,2 0 0,1 4,8H9M17,10A2,2 0 0,1 19,8A2,2 0 0,1 21,10A2,2 0 0,1 19,12H17V10M16,10A2,2 0 0,1 14,12A2,2 0 0,1 12,10V5A2,2 0 0,1 14,3A2,2 0 0,1 16,5V10M14,18A2,2 0 0,1 16,20A2,2 0 0,1 14,22A2,2 0 0,1 12,20V18H14M14,17A2,2 0 0,1 12,15A2,2 0 0,1 14,13H19A2,2 0 0,1 21,15A2,2 0 0,1 19,17H14Z" /></svg>
</svg>
<svg id="mdi:video-outline">
<svg xmlns="http://www.w3.org/2000/svg" id="mdi-video-outline" viewBox="0 0 24 24"><path d="M15,8V16H5V8H15M16,6H4A1,1 0 0,0 3,7V17A1,1 0 0,0 4,18H16A1,1 0 0,0 17,17V13.5L21,17.5V6.5L17,10.5V7A1,1 0 0,0 16,6Z" /></svg>
</svg>
<svg id="mdi:volume-mute">
<svg xmlns="http://www.w3.org/2000/svg" id="mdi-volume-mute" viewBox="0 0 24 24"><path d="M3,9H7L12,4V20L7,15H3V9M16.59,12L14,9.41L15.41,8L18,10.59L20.59,8L22,9.41L19.41,12L22,14.59L20.59,16L18,13.41L15.41,16L14,14.59L16.59,12Z" /></svg>
</svg>
<svg id="mdi:window-maximize">
<svg xmlns="http://www.w3.org/2000/svg" id="mdi-window-maximize" viewBox="0 0 24 24"><path d="M4,4H20V20H4V4M6,8V18H18V8H6Z" /></svg>
</svg>
</defs>/* end glyphs */
<style>/* inherit to force styles through use tags */
svg path {
    fill: inherit;
}

/* font and background color specifications */
svg.keymap {
    font-family: SFMono-Regular,Consolas,Liberation Mono,Menlo,monospace;
    font-size: 14px;
    font-kerning: normal;
    text-rendering: optimizeLegibility;
    fill: #24292e;
}

/* default key styling */
rect.key {
    fill: #f6f8fa;
}

rect.key, rect.combo {
    stroke: #c9cccf;
    stroke-width: 1;
}

/* default key side styling, only used is draw_key_sides is set */
rect.side {
    filter: brightness(90%);
}

/* color accent for combo boxes */
rect.combo, rect.combo-separate {
    fill: #cdf;
}

/* color accent for held keys */
rect.held, rect.combo.held {
    fill: #fdd;
}

/* color accent for ghost (optional) keys */
rect.ghost, rect.combo.ghost {
    stroke-dasharray: 4, 4;
    stroke-width: 2;
}

text {
    text-anchor: middle;
    dominant-baseline: middle;
}

/* styling for layer labels */
text.label {
    font-weight: bold;
    text-anchor: start;
    stroke: white;
    stroke-width: 4;
    paint-order: stroke;
}

/* styling for optional footer */
text.footer {
    text-anchor: end;
    dominant-baseline: auto;
    stroke: white;
    stroke-width: 4;
    paint-order: stroke;
}

/* styling for combo tap, and key non-tap label text */
text.combo, text.hold, text.shifted, text.left, text.right {
    font-size: 11px;
}

text.hold {
    text-anchor: middle;
    dominant-baseline: auto;
}

text.shifted {
    text-anchor: middle;
    dominant-baseline: hanging;
}

text.left {
    text-anchor: start;
}

text.right {
    text-anchor: end;
}

text.layer-activator {
    text-decoration: underline;
}

/* styling for hold/shifted label text in combo box */
text.combo.hold, text.combo.shifted, text.combo.left, text.combo.right {
    font-size: 8px;
}

/* lighter symbol for transparent keys */
text.trans {
    fill: #7b7e81;
}

/* styling for combo dendrons */
path.combo {
    stroke-width: 1;
    stroke: gray;
    fill: none;
}

/* Start Tabler Icons Cleanup */
/* cannot use height/width with glyphs */
.icon-tabler > path {
    fill: inherit;
    stroke: inherit;
    stroke-width: 2;
}
/* hide tabler's default box */
.icon-tabler > path[stroke="none"][fill="none"] {
    visibility: hidden;
}
/* End Tabler Icons Cleanup */
</style>
<g transform="translate(30, 0)" class="layer-default">
<text x="0" y="28" class="label" id="default">default:</text>
<g transform="translate(0, 56)">
<g transform="translate(84, 28)" class="key keypos-0">
<rect rx="6" ry="6" x="-26" y="-26" width="52" height="52" class="key"/>
<use href="#mdi:content-cut" xlink:href="#mdi:content-cut" x="-7" y="-7" height="14" width="14.0" class="key tap glyph mdi:content-cut"/>
</g>
<g transform="translate(140, 28)" class="key keypos-1">
<rect rx="6" ry="6" x="-26" y="-26" width="52" height="52" class="key"/>
<use href="#mdi:message-badge" xlink:href="#mdi:message-badge" x="-7" y="-7" height="14" width="14.0" class="key tap glyph mdi:message-badge"/>
</g>
<g transform="translate(196, 28)" class="key keypos-2">
<rect rx="6" ry="6" x="-26" y="-26" width="52" height="52" class="key"/>
<use href="#mdi:open-in-new" xlink:href="#mdi:open-in-new" x="-7" y="-7" height="14" width="14.0" class="key tap glyph mdi:open-in-new"/>
</g>
<g transform="translate(28, 84)" class="key keypos-3">
<rect rx="6" ry="6" x="-26" y="-26" width="52" height="52" class="key"/>
<text x="0" y="0" class="key tap">F20</text>
</g>
<g transform="translate(84, 84)" class="key keypos-4">
<rect rx="6" ry="6" x="-26" y="-26" width="52" height="52" class="key"/>
<use href="#mdi:close-box-outline" xlink:href="#mdi:close-box-outline" x="-7" y="-7" height="14" width="14.0" class="key tap glyph mdi:close-box-outline"/>
</g>
<g transform="translate(140, 84)" class="key keypos-5">
<rect rx="6" ry="6" x="-26" y="-26" width="52" height="52" class="key"/>
<use href="#mdi:file-undo-outline" xlink:href="#mdi:file-undo-outline" x="-7" y="-7" height="14" width="14.0" class="key tap glyph mdi:file-undo-outline"/>
</g>
<g transform="translate(196, 84)" class="key keypos-6">
<rect rx="6" ry="6" x="-26" y="-26" width="52" height="52" class="key"/>
<use href="#mdi:content-save-outline" xlink:href="#mdi:content-save-outline" x="-7" y="-7" height="14" width="14.0" class="key tap glyph mdi:content-save-outline"/>
</g>
<g transform="translate(28, 140)" class="key keypos-7">
<rect rx="6" ry="6" x="-26" y="-26" width="52" height="52" class="key"/>
<use href="#mdi:arrow-right-top" xlink:href="#mdi:arrow-right-top" x="-7" y="-7" height="14" width="14.0" class="key tap glyph mdi:arrow-right-top"/>
</g>
<g transform="translate(84, 140)" class="key keypos-8">
<rect rx="6" ry="6" x="-26" y="-26" width="52" height="52" class="key"/>
<use href="#mdi:note-text-outline" xlink:href="#mdi:note-text-outline" x="-7" y="-7" height="14" width="14.0" class="key tap glyph mdi:note-text-outline"/>
</g>
<g transform="translate(140, 140)" class="key keypos-9">
<rect rx="6" ry="6" x="-26" y="-26" width="52" height="52" class="key"/>
<use href="#mdi:calendar-text-outline" xlink:href="#mdi:calendar-text-outline" x="-7" y="-7" height="14" width="14.0" class="key tap glyph mdi:calendar-text-outline"/>
</g>
<g transform="translate(196, 140)" class="key keypos-10">
<rect rx="6" ry="6" x="-26" y="-26" width="52" height="52" class="key"/>
<use href="#mdi:content-save-outline" xlink:href="#mdi:content-save-outline" x="-7" y="-7" height="14" width="14.0" class="key tap glyph mdi:content-save-outline"/>
</g>
<g transform="translate(28, 196)" class="key keypos-11">
<rect rx="6" ry="6" x="-26" y="-26" width="52" height="52" class="key"/>
<use href="#mdi:arrow-right-top" xlink:href="#mdi:arrow-right-top" x="-7" y="-7" height="14" width="14.0" class="key tap glyph mdi:arrow-right-top"/>
</g>
<g transform="translate(84, 196)" class="key keypos-12">
<rect rx="6" ry="6" x="-26" y="-26" width="52" height="52" class="key"/>
<use href="#mdi:microsoft-visual-studio-code" xlink:href="#mdi:microsoft-visual-studio-code" x="-7" y="-7" height="14" width="14.0" class="key tap glyph mdi:microsoft-visual-studio-code"/>
</g>
<g transform="translate(140, 196)" class="key keypos-13">
<rect rx="6" ry="6" x="-26" y="-26" width="52" height="52" class="key"/>
<use href="#mdi:google-chrome" xlink:href="#mdi:google-chrome" x="-7" y="-7" height="14" width="14.0" class="key tap glyph mdi:google-chrome"/>
</g>
<g transform="translate(196, 196)" class="key keypos-14">
<rect rx="6" ry="6" x="-26" y="-26" width="52" height="52" class="key"/>
<text x="0" y="0" class="key tap">F24</text>
<a href="#func">
<text x="0" y="24" class="key hold layer-activator">func</text>
</a></g>
<g transform="translate(28, 252)" class="key keypos-15">
<rect rx="6" ry="6" x="-26" y="-26" width="52" height="52" class="key"/>
<use href="#mdi:window-maximize" xlink:href="#mdi:window-maximize" x="-7" y="-7" height="14" width="14.0" class="key tap glyph mdi:window-maximize"/>
</g>
<g transform="translate(84, 252)" class="key keypos-16">
<rect rx="6" ry="6" x="-26" y="-26" width="52" height="52" class="key"/>
<use href="#mdi:slack" xlink:href="#mdi:slack" x="-7" y="-7" height="14" width="14.0" class="key tap glyph mdi:slack"/>
</g>
<g transform="translate(140, 252)" class="key keypos-17">
<rect rx="6" ry="6" x="-26" y="-26" width="52" height="52" class="key"/>
<use href="#mdi:video-outline" xlink:href="#mdi:video-outline" x="-7" y="-7" height="14" width="14.0" class="key tap glyph mdi:video-outline"/>
</g>
<g transform="translate(196, 252)" class="key keypos-18">
<rect rx="6" ry="6" x="-26" y="-26" width="52" height="52" class="key"/>
<use href="#mdi:cancel" xlink:href="#mdi:cancel" x="-7" y="-7" height="14" width="14.0" class="key tap glyph mdi:cancel"/>
</g>
</g>
</g>
<g transform="translate(30, 336)" class="layer-func">
<text x="0" y="28" class="label" id="func">func:</text>
<g transform="translate(0, 56)">
<g transform="translate(84, 28)" class="key keypos-0">
<rect rx="6" ry="6" x="-26" y="-26" width="52" height="52" class="key"/>
<use href="#mdi:power-cycle" xlink:href="#mdi:power-cycle" x="-7" y="-7" height="14" width="14.0" class="key tap glyph mdi:power-cycle"/>
</g>
<g transform="translate(140, 28)" class="key keypos-1">
<rect rx="6" ry="6" x="-26" y="-26" width="52" height="52" class="key"/>
<text x="0" y="0" class="key tap">
<tspan x="0" dy="-0.6em">RGB</tspan><tspan x="0" dy="1.2em">TOG</tspan>
</text>
</g>
<g transform="translate(196, 28)" class="key keypos-2">
<rect rx="6" ry="6" x="-26" y="-26" width="52" height="52" class="key"/>
<text x="0" y="0" class="key tap">&amp;boot</text>
</g>
<g transform="translate(28, 84)" class="key keypos-3">
<rect rx="6" ry="6" x="-26" y="-26" width="52" height="52" class="key"/>
</g>
<g transform="translate(84, 84)" class="key keypos-4">
<rect rx="6" ry="6" x="-26" y="-26" width="52" height="52" class="key"/>
<text x="0" y="0" class="key tap">
<tspan x="0" dy="-0.6em">OUT</tspan><tspan x="0" dy="1.2em">USB</tspan>
</text>
</g>
<g transform="translate(140, 84)" class="key keypos-5">
<rect rx="6" ry="6" x="-26" y="-26" width="52" height="52" class="key"/>
<text x="0" y="0" class="key tap">
<tspan x="0" dy="-0.6em">OUT</tspan><tspan x="0" dy="1.2em">BLE</tspan>
</text>
</g>
<g transform="translate(196, 84)" class="key keypos-6">
<rect rx="6" ry="6" x="-26" y="-26" width="52" height="52" class="key"/>
<text x="0" y="0" class="key tap">
<tspan x="0" dy="-0.6em">BT</tspan><tspan x="0" dy="1.2em">CLR</tspan>
</text>
</g>
<g transform="translate(28, 140)" class="key keypos-7">
<rect rx="6" ry="6" x="-26" y="-26" width="52" height="52" class="key"/>
</g>
<g transform="translate(84, 140)" class="key keypos-8">
<rect rx="6" ry="6" x="-26" y="-26" width="52" height="52" class="key"/>
<text x="0" y="0" class="key tap">BT</text>
<text x="0" y="24" class="key hold">3</text>
</g>
<g transform="translate(140, 140)" class="key keypos-9">
<rect rx="6" ry="6" x="-26" y="-26" width="52" height="52" class="key"/>
<text x="0" y="0" class="key tap">BT</text>
<text x="0" y="24" class="key hold">0</text>
</g>
<g transform="translate(196, 140)" class="key keypos-10">
<rect rx="6" ry="6" x="-26" y="-26" width="52" height="52" class="key"/>
<text x="0" y="0" class="key tap">
<tspan x="0" dy="-0.6em">BT</tspan><tspan x="0" dy="1.2em">CLR</tspan>
</text>
</g>
<g transform="translate(28, 196)" class="key keypos-11">
<rect rx="6" ry="6" x="-26" y="-26" width="52" height="52" class="key"/>
</g>
<g transform="translate(84, 196)" class="key keypos-12">
<rect rx="6" ry="6" x="-26" y="-26" width="52" height="52" class="key"/>
<text x="0" y="0" class="key tap">BT</text>
<text x="0" y="24" class="key hold">1</text>
</g>
<g transform="translate(140, 196)" class="key keypos-13">
<rect rx="6" ry="6" x="-26" y="-26" width="52" height="52" class="key"/>
<text x="0" y="0" class="key tap">BT</text>
<text x="0" y="24" class="key hold">2</text>
</g>
<g transform="translate(196, 196)" class="key held keypos-14">
<rect rx="6" ry="6" x="-26" y="-26" width="52" height="52" class="key held"/>
</g>
<g transform="translate(28, 252)" class="key keypos-15">
<rect rx="6" ry="6" x="-26" y="-26" width="52" height="52" class="key"/>
<use href="#mdi:volume-mute" xlink:href="#mdi:volume-mute" x="-7" y="-7" height="14" width="14.0" class="key tap glyph mdi:volume-mute"/>
</g>
<g transform="translate(84, 252)" class="key keypos-16">
<rect rx="6" ry="6" x="-26" y="-26" width="52" height="52" class="key"/>
<text x="0" y="0" class="key tap">
<tspan x="0" dy="-0.6em">OUT</tspan><tspan x="0" dy="1.2em">TOG</tspan>
</text>
</g>
<g transform="translate(140, 252)" class="key keypos-17">
<rect rx="6" ry="6" x="-26" y="-26" width="52" height="52" class="key"/>
<text x="0" y="0" class="key tap">
<tspan x="0" dy="-0.6em">BT</tspan><tspan x="0" dy="1.2em">PRV</tspan>
</text>
</g>
<g transform="translate(196, 252)" class="key keypos-18">
<rect rx="6" ry="6" x="-26" y="-26" width="52" height="52" class="key"/>
<text x="0" y="0" class="key tap">
<tspan x="0" dy="-0.6em">BT</tspan><tspan x="0" dy="1.2em">NXT</tspan>
</text>
</g>
</g>
</g>
</svg>
